<mxfile host="app.diagrams.net" modified="2024-04-01T07:30:10.569Z" agent="Mozilla/5.0 (Windows NT 10.0; Win64; x64) AppleWebKit/537.36 (KHTML, like Gecko) Chrome/123.0.0.0 Safari/537.36 Edg/123.0.0.0" version="24.1.0" etag="O877p4u30UK0ZiMvnHYP" type="github">
  <diagram name="第 1 页" id="3fT4_iJ_3DGOH1JY3sx4">
    <mxGraphModel>
      <root>
        <mxCell id="0" />
        <mxCell id="1" parent="0" />
      </root>
    </mxGraphModel>
  </diagram>
</mxfile>
